<svg width="73" height="78" viewBox="0 0 73 78" fill="none" xmlns="http://www.w3.org/2000/svg">
    <path
        d="M0 0V59.5H11.5V11C18.5 11.1667 33.1 11.4 35.5 11C37.9 10.6 41.5 11.8333 43 12.5L50 3C44.8 1 39.5 0.166667 37.5 0H0Z"
        fill="black" />
    <path
        d="M0 78V67H37.5C39.9 67 42.1667 65.6667 43 65L50 74.5C46.8 76.9 40.3333 77.8333 37.5 78H0Z"
        fill="black" />
    <path d="M18.5 31.5V63.5L32 47.5L58.5 78H72.5L40 39L72 0H58L25 38L18.5 31.5Z" fill="black" />
    <path d="M57 24C64.2 34.8 60 48.5 57 54L64.5 62.5C79.7 40.1 70.8333 21.5 64.5 15L57 24Z"
        fill="black" />
</svg>
