<svg width="801" height="801" viewBox="0 0 801 801" fill="none" xmlns="http://www.w3.org/2000/svg">
        <path d="M635.658 11H164.425C79.6906 11 11 79.6906 11 164.425V635.658C11 720.392 79.6906 789.082 164.425 789.082H635.658C720.392 789.082 789.082 720.392 789.082 635.658V164.425C789.082 79.6906 720.392 11 635.658 11Z" fill="black" stroke="black" stroke-width="21.9178"/>
        <path d="M399.872 686L193.9 628.821L148 114H652.361L606.412 628.74L399.872 686Z" fill="#264DE4"/>
        <path d="M567.075 595.963L606.341 156.094H400.18V642.233L567.075 595.963Z" fill="#2965F1"/>
        <path d="M253.224 347.034L258.883 410.174H400.18V347.034H253.224Z" fill="#EBEBEB"/>
        <path d="M241.853 219.235L247.593 282.377H400.18V219.235H241.853Z" fill="#EBEBEB"/>
        <path d="M400.18 511.017L399.904 511.091L329.583 492.103L325.088 441.745H261.705L270.551 540.885L399.89 576.79L400.18 576.71V511.017Z" fill="#EBEBEB"/>
        <path d="M546.732 347.034L558.131 219.235H399.962V282.377H488.934L483.189 347.034H399.962V410.174H477.713L470.384 492.062L399.962 511.07V576.76L529.404 540.885L530.354 530.217L545.191 363.989L546.732 347.034Z" fill="white"/>
        </svg>
