<svg width="801" height="801" viewBox="0 0 801 801" fill="none" xmlns="http://www.w3.org/2000/svg">
        <path d="M635.658 11H164.425C79.6906 11 11 79.6906 11 164.425V635.658C11 720.392 79.6906 789.082 164.425 789.082H635.658C720.392 789.082 789.082 720.392 789.082 635.658V164.425C789.082 79.6906 720.392 11 635.658 11Z" fill="black" stroke="black" stroke-width="21.9178"/>
        <path d="M228 538H329.357V580.386H270.386V622.771H329.357V665.157H228V538Z" fill="white"/>
        <path d="M349.628 538H450.986V574.857H392.014V582.229H450.986V667H349.628V628.3H408.6V620.929H349.628V538Z" fill="white"/>
        <path d="M471.257 538H572.614V574.857H513.643V582.229H572.614V667H471.257V628.3H530.229V620.929H471.257V538Z" fill="white"/>
        <path d="M398.521 490L268.888 454.013L240 130H557.43L528.511 453.962L398.521 490Z" fill="#264DE4"/>
        <path d="M503.753 433.334L528.466 156.493H398.715V462.455L503.753 433.334Z" fill="#2965F1"/>
        <path d="M306.225 276.665L309.787 316.403H398.715V276.665H306.225Z" fill="#EBEBEB"/>
        <path d="M299.069 196.232L302.681 235.971H398.715V196.232H299.069Z" fill="#EBEBEB"/>
        <path d="M398.715 379.871L398.541 379.917L354.283 367.967L351.454 336.273H311.562L317.13 398.669L398.532 421.266L398.715 421.216V379.871Z" fill="#EBEBEB"/>
        <path d="M490.95 276.664L498.124 196.232H398.578V235.971H454.574L450.958 276.664H398.578V316.403H447.512L442.899 367.941L398.578 379.904V421.247L480.045 398.669L480.642 391.955L489.98 287.335L490.95 276.664Z" fill="white"/>
        </svg>
