<svg width="801" height="801" viewBox="0 0 801 801" fill="none" xmlns="http://www.w3.org/2000/svg">
    <path d="M635.658 11H164.425C79.6906 11 11 79.6906 11 164.425V635.658C11 720.392 79.6906 789.082 164.425 789.082H635.658C720.392 789.082 789.082 720.392 789.082 635.658V164.425C789.082 79.6906 720.392 11 635.658 11Z" fill="black" stroke="black" stroke-width="21.9178"/>
    <path d="M241 187.5L544.5 195L553.5 652L210.5 581.5L241 187.5Z" fill="white"/>
    <path d="M542.272 654.15C539.788 655.463 539.927 655.993 542.412 654.737C543.139 654.425 543.802 653.98 544.366 653.425C544.366 652.978 544.31 653.034 542.272 654.15ZM547.242 651.526C546.069 652.447 546.069 652.503 547.493 651.777C548.275 651.386 548.945 650.94 548.945 650.8C548.945 650.27 548.61 650.409 547.242 651.526ZM550.508 649.544C549.336 650.465 549.336 650.521 550.759 649.795C551.541 649.404 552.211 648.958 552.211 648.818C552.211 648.288 551.876 648.427 550.508 649.544ZM553.775 647.59C552.602 648.511 552.602 648.567 554.026 647.841C554.807 647.45 555.478 647.003 555.478 646.864C555.478 646.333 555.143 646.473 553.775 647.59ZM558.297 644.658C556.008 646.11 555.282 647.087 557.32 645.97C558.772 645.133 561.117 643.346 560.726 643.29C559.87 643.658 559.055 644.117 558.297 644.658ZM358.043 26.0996C356.591 26.2392 352.012 26.6859 347.881 27.0209C252.737 35.5919 163.595 86.9337 107.145 165.859C75.9375 209.178 55.6525 259.393 48.0151 312.235C45.335 330.633 45 336.077 45 361.036C45 385.995 45.335 391.411 48.0151 409.837C66.2176 535.637 155.75 641.336 277.165 680.505C298.913 687.513 321.833 692.287 347.881 695.162C358.043 696.279 401.902 696.279 412.064 695.162C457.039 690.193 495.175 679.054 532.752 659.874C538.503 656.914 539.62 656.133 538.839 655.49C520.483 631.237 502.299 606.854 484.287 582.344L430.713 509.98L363.598 410.647C341.283 377.409 318.753 344.315 296.009 311.369C295.758 311.313 295.479 355.452 295.367 409.335C295.172 503.699 295.116 507.495 293.915 509.729C292.776 512.338 290.734 514.449 288.164 515.675C286.07 516.736 284.228 516.932 274.345 516.932H263.01L259.995 515.033C258.135 513.861 256.622 512.213 255.612 510.259L254.244 507.3L254.384 376L254.579 244.644L256.617 242.104C257.986 240.495 259.631 239.143 261.475 238.111C264.155 236.799 265.216 236.66 276.55 236.66C289.923 236.66 292.129 237.19 295.618 240.987C322.786 281.42 349.727 322.004 376.44 362.739C419.936 428.682 479.374 518.719 508.604 562.941L561.647 643.29L564.327 641.531C589.851 624.554 612.995 604.245 633.145 581.144C675.356 532.836 702.731 473.374 711.985 409.893C714.665 391.495 715 386.051 715 361.092C715 336.133 714.665 330.717 711.985 312.29C693.782 186.49 604.25 80.7916 482.835 41.6222C460.146 34.3983 436.779 29.5059 413.097 27.0209C406.815 26.3788 363.514 25.6529 358.098 26.1834L358.043 26.0996ZM495.175 228.731C496.736 229.516 498.126 230.604 499.262 231.931C500.398 233.259 501.258 234.8 501.792 236.464C502.322 238.167 502.434 274.573 502.322 356.625L502.127 474.384L481.356 442.557L460.529 410.73V325.133C460.529 269.799 460.78 238.698 461.171 237.19C461.645 235.45 462.462 233.823 463.574 232.403C464.686 230.984 466.072 229.802 467.648 228.926C470.328 227.558 471.305 227.419 481.607 227.419C491.294 227.419 492.997 227.558 495.175 228.731Z" fill="black"/>
    </svg>
