<svg width="801" height="801" viewBox="0 0 801 801" fill="none" xmlns="http://www.w3.org/2000/svg">
    <path d="M635.658 11H164.425C79.6906 11 11 79.6906 11 164.425V635.658C11 720.392 79.6906 789.082 164.425 789.082H635.658C720.392 789.082 789.082 720.392 789.082 635.658V164.425C789.082 79.6906 720.392 11 635.658 11Z" fill="black" stroke="black" stroke-width="21.9178"/>
    <path d="M131.217 209.73L395.604 115.466L667.11 208.054L623.149 558.089L395.604 684.194L171.618 559.765L131.217 209.73Z" fill="#E23237"/>
    <path d="M667.11 208.054L395.604 115.466V684.194L623.149 558.299L667.11 208.054Z" fill="#B52E31"/>
    <path d="M396.022 181.87L231.278 548.663L292.821 547.616L325.897 464.871H473.685L509.901 548.663L568.722 549.71L396.022 181.87ZM396.442 299.387L452.124 415.854H347.456L396.442 299.387Z" fill="white"/>
    </svg>
