<svg width="801" height="801" viewBox="0 0 801 801" fill="none" xmlns="http://www.w3.org/2000/svg">
    <path d="M635.658 11H164.425C79.6906 11 11 79.6906 11 164.425V635.658C11 720.392 79.6906 789.082 164.425 789.082H635.658C720.392 789.082 789.082 720.392 789.082 635.658V164.425C789.082 79.6906 720.392 11 635.658 11Z" fill="black" stroke="black" stroke-width="21.9178"/>
    <path d="M231.967 488.217C238.267 488.217 243.75 487.4 248.417 485.767C253.083 484.133 256.817 481.994 259.617 479.35C262.417 476.628 264.672 473.244 266.383 469.2C268.094 465.078 269.222 460.917 269.767 456.717C270.389 452.439 270.7 447.578 270.7 442.133V349.267H227.183L232.783 359.533V444.35C232.783 450.261 231.539 454.461 229.05 456.95C226.639 459.439 223.333 460.683 219.133 460.683C216.644 460.683 214.622 460.45 213.067 459.983C211.511 459.517 209.45 458.583 206.883 457.183L207.233 481.333C208.867 482.889 211.978 484.444 216.567 486C221.156 487.478 226.289 488.217 231.967 488.217ZM352.146 486H394.963L355.996 349.267H307.813L310.613 358.717L275.029 486H309.329L313.763 464.183H346.896L352.146 486ZM328.813 389.4L341.179 440.383H318.546L328.813 389.4ZM422.665 486H465.015L498.848 349.267H468.165L457.665 396.4L447.748 445.867L437.248 396.4L427.098 349.267H384.048L422.665 486ZM566.111 486H608.928L569.961 349.267H521.778L524.578 358.717L488.994 486H523.294L527.728 464.183H560.861L566.111 486ZM542.778 389.4L555.144 440.383H532.511L542.778 389.4Z" fill="white"/>
    </svg>
