<svg width="801" height="801" viewBox="0 0 801 801" fill="none" xmlns="http://www.w3.org/2000/svg">
    <path d="M635.658 11H164.425C79.6906 11 11 79.6906 11 164.425V635.658C11 720.392 79.6906 789.082 164.425 789.082H635.658C720.392 789.082 789.082 720.392 789.082 635.658V164.425C789.082 79.6906 720.392 11 635.658 11Z" fill="black" stroke="black" stroke-width="21.9178"/>
    <path d="M173.45 464L177.067 383.617L177.767 353.983L199.233 450.35H229.683L247.533 353.983L248.933 383.617L254.883 464H291.167L281.133 327.267H232.367L223.267 373.233L218.833 396.333L214.167 373.117L203.9 327.267H149.183L138.333 464H173.45ZM326.468 464H368.352V420.6L402.535 327.267H367.768L358.668 362.5L352.018 391.317L343.968 362.5L331.952 327.267H287.735L326.468 421.3V464ZM444.983 466.45C459.371 466.45 470.338 462.444 477.883 454.433C485.505 446.344 489.316 434.6 489.316 419.2C489.316 409.711 486.633 401.661 481.266 395.05C475.977 388.439 467.655 382.722 456.299 377.9C455.21 377.2 453.577 376.306 451.399 375.217C449.299 374.05 447.627 373.078 446.383 372.3C445.216 371.522 443.933 370.589 442.533 369.5C441.133 368.411 440.121 367.206 439.499 365.883C438.877 364.561 438.566 363.083 438.566 361.45C438.566 355.228 443.544 352.117 453.499 352.117C457.621 352.117 461.938 353.011 466.449 354.8C471.038 356.511 474.849 359.156 477.883 362.733L483.716 340.217C483.483 339.828 483.094 339.322 482.549 338.7C482.005 338 480.683 336.833 478.583 335.2C476.56 333.489 474.305 332.011 471.816 330.767C469.327 329.522 465.866 328.394 461.433 327.383C457.077 326.294 452.41 325.75 447.433 325.75C416.088 325.75 400.416 339.633 400.416 367.4C400.416 372.533 401.194 377.356 402.749 381.867C404.305 386.3 406.094 389.956 408.116 392.833C410.138 395.633 412.744 398.356 415.933 401C419.199 403.567 421.805 405.433 423.749 406.6C425.694 407.689 428.066 408.933 430.866 410.333C438.566 414.067 443.971 417.256 447.083 419.9C450.271 422.544 451.866 425.733 451.866 429.467C451.866 432.967 450.466 435.378 447.666 436.7C444.944 438.022 440.471 438.683 434.249 438.683C428.027 438.683 422.233 437.128 416.866 434.017C411.499 430.828 407.221 427.094 404.033 422.817L401.116 451.167C402.594 452.722 404.421 454.278 406.599 455.833C408.855 457.389 411.733 459.022 415.233 460.733C418.733 462.444 423.049 463.806 428.183 464.817C433.394 465.906 438.994 466.45 444.983 466.45ZM554.645 446.85C549.667 446.85 546.167 444.322 544.145 439.267C542.2 434.211 541.228 425.228 541.228 412.317V381.867C541.228 364.133 542.978 353.011 546.478 348.5C548.422 346.011 551.145 344.767 554.645 344.767C559.622 344.767 563.2 347.489 565.378 352.933C567.556 358.378 568.645 366.661 568.645 377.783V407.067C568.645 425.733 567.206 437.439 564.328 442.183C562.384 445.294 559.156 446.85 554.645 446.85ZM566.661 501.8C579.339 501.8 588.867 499.039 595.245 493.517C595.4 493.361 595.517 493.244 595.595 493.167V477.3C594.895 477.767 594.156 478.156 593.378 478.467C592.6 478.778 591.706 479.011 590.695 479.167C589.761 479.4 588.75 479.517 587.661 479.517C583.85 479.517 581.011 478.506 579.145 476.483C577.356 474.461 576.461 470.339 576.461 464.117V463.533C581.984 461.9 586.767 459.644 590.811 456.767C594.934 453.811 598.278 450.389 600.845 446.5C603.489 442.611 605.628 438.022 607.261 432.733C608.895 427.367 610.022 421.767 610.645 415.933C611.267 410.022 611.578 403.333 611.578 395.867C611.578 389.567 611.384 383.928 610.995 378.95C610.606 373.972 609.906 368.956 608.895 363.9C607.884 358.844 606.522 354.45 604.811 350.717C603.178 346.906 600.961 343.328 598.161 339.983C595.439 336.639 592.211 333.917 588.478 331.817C584.745 329.717 580.272 328.083 575.061 326.917C569.85 325.672 563.978 325.05 557.445 325.05C547.956 325.05 539.711 326.139 532.711 328.317C525.789 330.494 520.111 333.489 515.678 337.3C511.322 341.111 507.822 346.089 505.178 352.233C502.534 358.3 500.706 364.794 499.695 371.717C498.761 378.639 498.295 386.767 498.295 396.1C498.295 401.7 498.411 406.756 498.645 411.267C498.956 415.778 499.5 420.328 500.278 424.917C501.056 429.428 502.067 433.472 503.311 437.05C504.634 440.628 506.306 444.05 508.328 447.317C510.35 450.583 512.722 453.383 515.445 455.717C518.167 457.972 521.434 459.956 525.245 461.667C529.056 463.378 533.334 464.622 538.078 465.4C538.467 478.544 540.8 487.878 545.078 493.4C549.356 499 556.55 501.8 566.661 501.8ZM623.699 464H697.083V432.733H662.316V327.267H623.699V464Z" fill="white"/>
    </svg>
