<svg width="801" height="801" viewBox="0 0 801 801" fill="none" xmlns="http://www.w3.org/2000/svg">
    <path d="M635.658 11H164.425C79.6906 11 11 79.6906 11 164.425V635.658C11 720.392 79.6906 789.082 164.425 789.082H635.658C720.392 789.082 789.082 720.392 789.082 635.658V164.425C789.082 79.6906 720.392 11 635.658 11Z" fill="black" stroke="black" stroke-width="21.9178"/>
    <path d="M651.959 116L606.047 630.33L399.671 687.543L193.864 630.409L148 116H651.959Z" fill="#E44D26"/>
    <path d="M399.979 643.811L566.742 597.579L605.974 158.06H399.979V643.811Z" fill="#F16529"/>
    <path d="M310.728 284.242H399.98V221.152H241.779L243.288 238.078L258.796 411.938H399.98V348.847H316.495L310.728 284.242ZM324.948 443.484H261.615L270.453 542.545L399.689 578.419L399.98 578.34V512.7L399.703 512.773L329.44 493.801L324.948 443.484Z" fill="#EBEBEB"/>
    <path d="M399.762 411.938H477.451L470.126 493.761L399.76 512.753V578.39L529.1 542.545L530.048 531.885L544.876 365.789L546.415 348.847H399.762V411.938ZM399.762 284.088V284.242H552.155L553.42 270.062L556.296 238.078L557.803 221.152H399.762V284.088Z" fill="white"/>
    </svg>
