<svg width="801" height="801" viewBox="0 0 801 801" fill="none" xmlns="http://www.w3.org/2000/svg">
	<path d="M635.658 11H164.425C79.6906 11 11 79.6906 11 164.425V635.658C11 720.392 79.6906 789.082 164.425 789.082H635.658C720.392 789.082 789.082 720.392 789.082 635.658V164.425C789.082 79.6906 720.392 11 635.658 11Z" fill="black" stroke="black" stroke-width="21.9178"/>
	<path d="M289.433 486V457.067C289.511 457.067 289.978 457.106 290.833 457.183C291.689 457.261 292.272 457.3 292.583 457.3C292.894 457.3 293.478 457.339 294.333 457.417C295.267 457.417 295.967 457.456 296.433 457.533C296.978 457.533 297.678 457.572 298.533 457.65C299.467 457.65 300.244 457.689 300.867 457.767C301.567 457.767 302.306 457.767 303.083 457.767C303.939 457.767 304.756 457.767 305.533 457.767C311.6 457.767 317.356 456.406 322.8 453.683C328.244 450.961 333.106 447.072 337.383 442.017C341.661 436.961 345.044 430.506 347.533 422.65C350.1 414.717 351.383 405.928 351.383 396.283C351.383 380.261 347.494 368.244 339.717 360.233C331.939 352.222 320.506 348.217 305.417 348.217C300.05 348.217 293.206 348.411 284.883 348.8C276.561 349.111 270.339 349.267 266.217 349.267H250.817V486H289.433ZM313.117 391.15V408.417C313.117 416.194 311.406 422.144 307.983 426.267C304.639 430.389 299.894 432.45 293.75 432.45H289.433V371.783H295.033C300.867 371.783 305.339 373.572 308.45 377.15C311.561 380.728 313.117 385.394 313.117 391.15ZM398.808 486V430.233H428.792V486H467.408V349.267H428.792V403.4H398.808V349.267H360.192V486H398.808ZM521.513 486V457.067C521.591 457.067 522.058 457.106 522.913 457.183C523.769 457.261 524.352 457.3 524.663 457.3C524.975 457.3 525.558 457.339 526.413 457.417C527.347 457.417 528.047 457.456 528.513 457.533C529.058 457.533 529.758 457.572 530.613 457.65C531.547 457.65 532.325 457.689 532.947 457.767C533.647 457.767 534.386 457.767 535.163 457.767C536.019 457.767 536.836 457.767 537.613 457.767C543.68 457.767 549.436 456.406 554.88 453.683C560.325 450.961 565.186 447.072 569.463 442.017C573.741 436.961 577.125 430.506 579.613 422.65C582.18 414.717 583.463 405.928 583.463 396.283C583.463 380.261 579.575 368.244 571.797 360.233C564.019 352.222 552.586 348.217 537.497 348.217C532.13 348.217 525.286 348.411 516.963 348.8C508.641 349.111 502.419 349.267 498.297 349.267H482.897V486H521.513ZM545.197 391.15V408.417C545.197 416.194 543.486 422.144 540.063 426.267C536.719 430.389 531.975 432.45 525.83 432.45H521.513V371.783H527.113C532.947 371.783 537.419 373.572 540.53 377.15C543.641 380.728 545.197 385.394 545.197 391.15Z" fill="white"/>
	</svg>
