<svg width="801" height="801" viewBox="0 0 801 801" fill="none" xmlns="http://www.w3.org/2000/svg">
    <path d="M635.658 11H164.425C79.6906 11 11 79.6906 11 164.425V635.658C11 720.392 79.6906 789.082 164.425 789.082H635.658C720.392 789.082 789.082 720.392 789.082 635.658V164.425C789.082 79.6906 720.392 11 635.658 11Z" fill="black" stroke="black" stroke-width="21.9178"/>
    <path d="M608.042 189.756C554.875 113.764 449.86 91.2388 373.94 139.553L240.613 224.431C231.643 230.062 223.276 236.609 215.663 243.968C208.04 251.327 201.21 259.459 195.278 268.23C189.347 277.001 184.341 286.364 180.339 296.166C176.346 305.973 173.382 316.167 171.494 326.584C169.918 335.317 169.058 344.175 168.943 353.051C168.819 361.937 169.44 370.813 170.787 379.584C172.134 388.365 174.207 397.022 176.977 405.459C179.747 413.896 183.214 422.086 187.341 429.95C184.502 434.261 181.881 438.711 179.489 443.284C177.091 447.855 174.933 452.551 173.013 457.343C171.093 462.134 169.421 467.021 167.998 471.984C166.574 476.947 165.409 481.977 164.492 487.054C160.682 508.407 161.185 530.305 165.973 551.46C168.361 562.006 171.79 572.295 176.222 582.164C180.654 592.033 186.051 601.444 192.355 610.244C245.522 686.236 350.528 708.761 426.448 660.447L559.776 575.922C568.745 570.281 577.093 563.724 584.706 556.356C592.318 548.993 599.146 540.863 605.081 532.094C611.013 523.332 616.018 513.969 620.02 504.167C624.023 494.375 626.993 484.181 628.894 473.768C630.47 465.035 631.321 456.188 631.435 447.311C631.55 438.435 630.929 429.559 629.572 420.788C628.226 412.016 626.153 403.369 623.373 394.932C620.594 386.504 617.126 378.315 613 370.45C615.837 366.146 618.463 361.689 620.861 357.117C623.249 352.545 625.417 347.849 627.337 343.058C629.257 338.267 630.938 333.38 632.371 328.417C633.795 323.463 634.979 318.433 635.905 313.356C637.797 302.704 638.618 291.891 638.37 281.077C638.122 270.263 636.794 259.506 634.406 248.95C632.018 238.404 628.589 228.115 624.156 218.246C619.73 208.375 614.332 198.969 608.042 190.166" fill="#FF3E00"/>
    <path d="M360.911 617.593C350.476 620.302 339.689 621.402 328.921 620.857C318.156 620.304 307.534 618.128 297.428 614.377C287.322 610.632 277.845 605.37 269.326 598.772C260.813 592.169 253.357 584.31 247.213 575.464C243.421 570.167 240.173 564.517 237.518 558.58C234.854 552.647 232.79 546.464 231.356 540.121C229.933 533.774 229.131 527.303 228.988 520.803C228.844 514.304 229.351 507.804 230.497 501.4C230.678 500.359 230.888 499.319 231.118 498.288C231.337 497.248 231.586 496.217 231.853 495.196C232.111 494.165 232.398 493.144 232.703 492.123C232.999 491.111 233.324 490.099 233.659 489.097L236.171 481.433L243.02 486.539C246.945 489.402 250.996 492.103 255.151 494.623C259.306 497.152 263.566 499.5 267.922 501.657C272.268 503.824 276.719 505.809 281.237 507.594C285.755 509.388 290.35 510.982 295.011 512.385L300.122 513.865L299.663 518.971C299.417 522.446 299.779 525.938 300.733 529.288C301.201 530.968 301.822 532.591 302.577 534.156C303.331 535.721 304.22 537.22 305.232 538.632C307.087 541.297 309.339 543.662 311.909 545.647C314.469 547.633 317.325 549.217 320.372 550.343C323.419 551.47 326.61 552.119 329.857 552.281C333.095 552.453 336.343 552.119 339.486 551.298C340.212 551.107 340.919 550.887 341.625 550.639C342.332 550.391 343.03 550.124 343.708 549.818C344.396 549.522 345.064 549.198 345.733 548.845C346.392 548.501 347.032 548.129 347.662 547.728L480.789 462.84C482.421 461.818 483.942 460.628 485.327 459.29C486.712 457.944 487.944 456.465 489.023 454.871C490.103 453.277 491.001 451.568 491.727 449.784C492.443 447.999 492.978 446.147 493.322 444.257C493.656 442.32 493.799 440.363 493.752 438.397C493.704 436.441 493.455 434.493 493.016 432.575C492.586 430.666 491.956 428.805 491.144 427.011C490.342 425.226 489.348 423.527 488.202 421.933C486.349 419.27 484.104 416.913 481.535 414.928C478.965 412.942 476.109 411.358 473.071 410.232C470.027 409.105 466.829 408.449 463.586 408.285C460.339 408.122 457.091 408.456 453.948 409.268C453.232 409.459 452.515 409.678 451.809 409.926C451.102 410.174 450.414 410.442 449.726 410.738C449.038 411.043 448.37 411.367 447.711 411.721C447.052 412.064 446.402 412.446 445.772 412.847L394.649 445.279C392.567 446.596 390.427 447.837 388.249 449.001C386.062 450.156 383.846 451.234 381.582 452.227C379.318 453.22 377.016 454.126 374.685 454.938C372.354 455.758 369.995 456.484 367.607 457.123C357.186 459.815 346.421 460.903 335.675 460.349C324.928 459.796 314.335 457.61 304.248 453.878C294.161 450.137 284.705 444.878 276.203 438.292C267.702 431.707 260.251 423.871 254.11 415.042C250.336 409.745 247.098 404.085 244.452 398.148C241.797 392.212 239.743 386.027 238.32 379.69C236.897 373.343 236.113 366.872 235.98 360.372C235.836 353.882 236.343 347.382 237.498 340.987C239.757 328.397 244.617 316.415 251.769 305.806C258.926 295.198 268.221 286.2 279.059 279.388L412.597 194.509C414.67 193.192 416.791 191.951 418.959 190.787C421.127 189.632 423.343 188.554 425.588 187.561C427.838 186.568 430.126 185.664 432.446 184.85C434.758 184.03 437.108 183.295 439.486 182.655C449.917 179.954 460.701 178.847 471.457 179.391C482.222 179.945 492.835 182.121 502.941 185.872C513.047 189.613 522.513 194.882 531.033 201.477C539.543 208.083 546.996 215.945 553.137 224.794C556.919 230.081 560.177 235.732 562.842 241.668C565.507 247.605 567.57 253.78 569.012 260.127C570.445 266.474 571.247 272.945 571.391 279.445C571.544 285.945 571.047 292.444 569.901 298.849C569.7 299.899 569.49 300.948 569.251 301.989C569.022 303.029 568.773 304.069 568.506 305.1C568.248 306.141 567.962 307.171 567.665 308.193C567.369 309.223 567.064 310.245 566.729 311.256L564.179 318.92L557.378 313.814C553.442 310.922 549.383 308.212 545.218 305.663C541.053 303.125 536.774 300.758 532.409 298.572C523.669 294.216 514.579 290.602 505.233 287.768L500.113 286.288L500.581 281.182C500.725 279.435 500.715 277.679 500.553 275.942C500.4 274.205 500.085 272.477 499.626 270.788C499.158 269.108 498.556 267.457 497.802 265.882C497.057 264.298 496.168 262.79 495.156 261.358C493.292 258.742 491.041 256.425 488.479 254.486C485.921 252.539 483.08 250.994 480.054 249.905C473.974 247.701 467.365 247.405 461.112 249.056C460.386 249.246 459.67 249.466 458.973 249.705C458.266 249.953 457.568 250.23 456.881 250.525C456.202 250.821 455.524 251.155 454.865 251.499C454.206 251.852 453.557 252.224 452.926 252.625L319.551 337.36C317.927 338.381 316.408 339.575 315.033 340.911C313.657 342.247 312.415 343.726 311.336 345.311C310.266 346.904 309.36 348.602 308.633 350.379C307.907 352.164 307.372 354.006 307.028 355.895C306.694 357.833 306.55 359.799 306.598 361.765C306.713 365.701 307.599 369.576 309.206 373.171C310.016 374.96 310.998 376.667 312.138 378.268C313.982 380.902 316.217 383.25 318.767 385.216C321.313 387.191 324.144 388.768 327.164 389.893C333.236 392.148 339.851 392.511 346.134 390.933C346.85 390.732 347.567 390.513 348.274 390.265C348.971 390.017 349.668 389.74 350.356 389.444C351.041 389.147 351.713 388.822 352.372 388.47C353.031 388.127 353.68 387.755 354.311 387.354L405.433 354.979C407.525 353.643 409.655 352.383 411.843 351.219C414.021 350.045 416.246 348.966 418.52 347.964C420.785 346.971 423.089 346.067 425.426 345.253C427.766 344.433 430.135 343.707 432.532 343.077C442.963 340.367 453.738 339.26 464.503 339.794C475.268 340.338 485.881 342.514 495.987 346.256C506.083 349.997 515.559 355.256 524.07 361.861C532.59 368.456 540.041 376.311 546.183 385.159C549.965 390.456 553.213 396.106 555.878 402.043C558.543 407.976 560.61 414.159 562.049 420.501C563.482 426.839 564.284 433.31 564.437 439.81C564.59 446.319 564.083 452.819 562.947 459.213C561.82 465.492 560.044 471.637 557.645 477.548C555.249 483.461 552.24 489.107 548.666 494.394C545.103 499.682 540.996 504.587 536.411 509.026C531.826 513.464 526.792 517.415 521.386 520.813L388.001 605.691C385.909 607.018 383.769 608.268 381.591 609.433C379.404 610.597 377.178 611.676 374.905 612.668C372.641 613.67 370.339 614.577 367.999 615.398C365.668 616.219 363.299 616.954 360.911 617.593Z" fill="white"/>
    </svg>
