<svg width="801" height="801" viewBox="0 0 801 801" fill="none" xmlns="http://www.w3.org/2000/svg">
    <path d="M635.658 11H164.425C79.6906 11 11 79.6906 11 164.425V635.658C11 720.392 79.6906 789.082 164.425 789.082H635.658C720.392 789.082 789.082 720.392 789.082 635.658V164.425C789.082 79.6906 720.392 11 635.658 11Z" fill="black" stroke="black" stroke-width="21.9178"/>
    <g clip-path="url(#clip0_513_11)">
    <path d="M191.867 632.978L150 120.957L650 121.986L605.73 632.978L401.887 692.043L191.867 632.978Z" fill="#E9CA32"/>
    <path d="M401.887 642.593V169.72L607.79 170.406L571.073 593.483L401.887 642.593Z" fill="#FFDE25"/>
    <path d="M379.839 225.868H325.403V540.6L283.065 532.53V490.162L232.661 482.092V576.915L379.839 615.248V225.868ZM420.673 225.868H571.371L561.29 286.191H478.202V385.183H561.29L551.21 584.985L420.673 615.248V552.705L508.871 522.442L513.964 439.724L420.673 453.242V225.868Z" fill="white"/>
    </g>
    <defs>
    <clipPath id="clip0_513_11">
    <rect width="500" height="573" fill="white" transform="translate(150 120)"/>
    </clipPath>
    </defs>
    </svg>
