<svg width="801" height="801" viewBox="0 0 801 801" fill="none" xmlns="http://www.w3.org/2000/svg">
    <path d="M635.658 11H164.425C79.6906 11 11 79.6906 11 164.425V635.658C11 720.392 79.6906 789.082 164.425 789.082H635.658C720.392 789.082 789.082 720.392 789.082 635.658V164.425C789.082 79.6906 720.392 11 635.658 11Z" fill="black" stroke="black" stroke-width="21.9178"/>
    <g clip-path="url(#clip0_514_26)">
    <path d="M465.175 320.604L407.967 373.867L354.864 266.716L382.297 205.105C389.23 192.816 400.57 192.653 407.503 205.105L465.175 320.604Z" fill="#FFA000"/>
    <path d="M407.99 373.844L194 572.866L354.887 266.716L407.99 373.844Z" fill="#F57F17"/>
    <path d="M527.902 239.145C538.151 229.383 548.702 232.676 551.369 246.542L607 570.176L422.483 680.945C416.014 684.562 398.854 685.977 398.854 685.977C398.854 685.977 383.247 684.075 377.264 680.783L194 572.866L527.902 239.145Z" fill="#FFCA28"/>
    <path d="M354.887 266.716L194 572.866L265.701 125.385C268.391 111.519 276.252 110.104 283.348 122.394L354.887 266.716Z" fill="#FFA000"/>
    </g>
    <defs>
    <clipPath id="clip0_514_26">
    <rect width="413" height="572" fill="white" transform="translate(194 114)"/>
    </clipPath>
    </defs>
    </svg>
