<svg width="801" height="801" viewBox="0 0 801 801" fill="none" xmlns="http://www.w3.org/2000/svg">
    <path d="M635.658 11H164.425C79.6906 11 11 79.6906 11 164.425V635.658C11 720.392 79.6906 789.082 164.425 789.082H635.658C720.392 789.082 789.082 720.392 789.082 635.658V164.425C789.082 79.6906 720.392 11 635.658 11Z" fill="black" stroke="black" stroke-width="21.9178"/>
    <path d="M397.543 114.162C252.191 114.162 261.266 177.227 261.266 177.227L261.428 242.566H400.135V262.182H206.336C206.336 262.182 113.325 251.628 113.325 398.363C113.325 545.102 194.507 539.898 194.507 539.898H242.956V471.805C242.956 471.805 240.344 390.581 322.842 390.581H460.414C460.414 390.581 537.707 391.831 537.707 315.842V190.199C537.707 190.199 549.446 114.162 397.543 114.162ZM321.06 158.1C324.338 158.097 327.584 158.741 330.613 159.995C333.641 161.248 336.393 163.087 338.711 165.406C341.029 167.725 342.867 170.478 344.12 173.509C345.373 176.539 346.016 179.787 346.013 183.066C346.016 186.346 345.373 189.594 344.12 192.624C342.867 195.654 341.029 198.408 338.711 200.727C336.393 203.046 333.641 204.884 330.613 206.138C327.584 207.392 324.338 208.035 321.06 208.032C317.782 208.035 314.536 207.392 311.507 206.138C308.479 204.884 305.727 203.046 303.409 200.727C301.091 198.408 299.253 195.654 298 192.624C296.747 189.594 296.104 186.346 296.107 183.066C296.104 179.787 296.747 176.539 298 173.509C299.253 170.478 301.091 167.725 303.409 165.406C305.727 163.087 308.479 161.248 311.507 159.995C314.536 158.741 317.782 158.097 321.06 158.1Z" fill="url(#paint0_linear_513_29)"/>
    <path d="M401.67 684.039C547.022 684.039 537.947 620.974 537.947 620.974L537.785 555.638H399.076V536.021H592.875C592.875 536.021 685.886 546.575 685.886 399.836C685.886 253.099 604.704 258.303 604.704 258.303H556.255V326.394C556.255 326.394 558.866 407.618 476.368 407.618H338.796C338.796 407.618 261.504 406.368 261.504 482.359V608.004C261.504 608.004 249.767 684.039 401.668 684.039H401.67ZM478.153 640.105C474.875 640.108 471.629 639.464 468.6 638.211C465.572 636.957 462.82 635.118 460.502 632.799C458.184 630.481 456.346 627.727 455.093 624.697C453.84 621.666 453.197 618.419 453.2 615.139C453.197 611.86 453.84 608.611 455.093 605.581C456.346 602.55 458.183 599.797 460.501 597.477C462.819 595.158 465.571 593.319 468.6 592.065C471.629 590.812 474.875 590.168 478.153 590.171C481.431 590.168 484.677 590.812 487.706 592.065C490.735 593.319 493.487 595.158 495.804 597.477C498.122 599.795 499.96 602.549 501.213 605.579C502.466 608.61 503.109 611.857 503.106 615.137C503.109 618.416 502.466 621.664 501.213 624.694C499.96 627.725 498.122 630.478 495.804 632.797C493.487 635.116 490.735 636.955 487.706 638.209C484.677 639.462 481.431 640.108 478.153 640.105Z" fill="url(#paint1_linear_513_29)"/>
    <defs>
    <linearGradient id="paint0_linear_513_29" x1="5615.61" y1="5239.87" x2="34004.5" y2="33331" gradientUnits="userSpaceOnUse">
    <stop stop-color="#387EB8"/>
    <stop offset="1" stop-color="#366994"/>
    </linearGradient>
    <linearGradient id="paint1_linear_513_29" x1="8382.88" y1="9019.98" x2="38868.6" y2="37824.1" gradientUnits="userSpaceOnUse">
    <stop stop-color="#FFE052"/>
    <stop offset="1" stop-color="#FFC331"/>
    </linearGradient>
    </defs>
    </svg>
