<svg width="801" height="801" viewBox="0 0 801 801" fill="none" xmlns="http://www.w3.org/2000/svg">
    <path d="M635.658 11H164.425C79.6906 11 11 79.6906 11 164.425V635.658C11 720.392 79.6906 789.082 164.425 789.082H635.658C720.392 789.082 789.082 720.392 789.082 635.658V164.425C789.082 79.6906 720.392 11 635.658 11Z" fill="#000" stroke="#000" stroke-width="21.9178"/>
    <path d="M103.433 478V449.067C103.511 449.067 103.978 449.106 104.833 449.183C105.689 449.261 106.272 449.3 106.583 449.3C106.894 449.3 107.478 449.339 108.333 449.417C109.267 449.417 109.967 449.456 110.433 449.533C110.978 449.533 111.678 449.572 112.533 449.65C113.467 449.65 114.244 449.689 114.867 449.767C115.567 449.767 116.306 449.767 117.083 449.767C117.939 449.767 118.756 449.767 119.533 449.767C125.6 449.767 131.356 448.406 136.8 445.683C142.244 442.961 147.106 439.072 151.383 434.017C155.661 428.961 159.044 422.506 161.533 414.65C164.1 406.717 165.383 397.928 165.383 388.283C165.383 372.261 161.494 360.244 153.717 352.233C145.939 344.222 134.506 340.217 119.417 340.217C114.05 340.217 107.206 340.411 98.8833 340.8C90.5611 341.111 84.3389 341.267 80.2167 341.267H64.8167V478H103.433ZM127.117 383.15V400.417C127.117 408.194 125.406 414.144 121.983 418.267C118.639 422.389 113.894 424.45 107.75 424.45H103.433V363.783H109.033C114.867 363.783 119.339 365.572 122.45 369.15C125.561 372.728 127.117 377.394 127.117 383.15ZM199.275 478H241.158V434.6L275.342 341.267H240.575L231.475 376.5L224.825 405.317L216.775 376.5L204.758 341.267H160.542L199.275 435.3V478ZM298.773 478H338.206V372.183H365.506V341.267H271.473V372.183H298.773V478ZM414.468 478V422.233H444.452V478H483.068V341.267H444.452V395.4H414.468V341.267H375.852V478H414.468ZM538.107 425.15V395.867C538.107 381.789 539.079 372.106 541.024 366.817C543.046 361.45 546.546 358.767 551.524 358.767C556.501 358.767 560.079 361.489 562.257 366.933C564.435 372.378 565.524 380.661 565.524 391.783V419.9C565.524 431.333 565.018 439.928 564.007 445.683C563.074 451.361 561.674 455.133 559.807 457C557.94 458.789 555.179 459.683 551.524 459.683C546.546 459.683 543.046 457.156 541.024 452.1C539.079 447.044 538.107 438.061 538.107 425.15ZM549.074 480.45C558.562 480.45 566.768 479.4 573.69 477.3C580.69 475.122 586.407 472.167 590.84 468.433C595.274 464.622 598.812 459.722 601.457 453.733C604.101 447.667 605.929 441.172 606.94 434.25C607.951 427.328 608.457 419.2 608.457 409.867C608.457 403.567 608.262 397.928 607.874 392.95C607.485 387.972 606.785 382.956 605.774 377.9C604.762 372.844 603.401 368.45 601.69 364.717C600.057 360.906 597.84 357.328 595.04 353.983C592.318 350.639 589.09 347.917 585.357 345.817C581.624 343.717 577.151 342.083 571.94 340.917C566.729 339.672 560.857 339.05 554.324 339.05C544.835 339.05 536.59 340.139 529.59 342.317C522.668 344.494 516.99 347.489 512.557 351.3C508.201 355.111 504.701 360.089 502.057 366.233C499.412 372.3 497.585 378.794 496.574 385.717C495.64 392.639 495.174 400.767 495.174 410.1C495.174 416.4 495.368 422.078 495.757 427.133C496.146 432.111 496.846 437.128 497.857 442.183C498.868 447.161 500.19 451.517 501.824 455.25C503.535 458.983 505.751 462.483 508.474 465.75C511.274 469.017 514.54 471.7 518.274 473.8C522.007 475.9 526.44 477.533 531.574 478.7C536.785 479.867 542.618 480.45 549.074 480.45ZM657.678 478V434.95L650.795 390.15L667.945 423.983L695.712 478H731.295V341.267H694.078V377.9L699.795 429.817L679.262 385.6L657.795 341.267H614.862L620.578 352.233V478H657.678Z" fill="white"/>
    </svg>
