<svg width="801" height="801" viewBox="0 0 801 801" fill="none" xmlns="http://www.w3.org/2000/svg">
    <path d="M635.658 11H164.425C79.6906 11 11 79.6906 11 164.425V635.658C11 720.392 79.6906 789.082 164.425 789.082H635.658C720.392 789.082 789.082 720.392 789.082 635.658V164.425C789.082 79.6906 720.392 11 635.658 11Z" fill="black" stroke="black" stroke-width="21.9178"/>
    <g clip-path="url(#clip0_514_5)">
    <path d="M277.147 353.76C277.147 360.715 277.898 366.354 279.214 370.489C280.717 374.625 282.596 379.136 285.226 384.023C286.166 385.527 286.542 387.03 286.542 388.346C286.542 390.226 285.414 392.105 282.972 393.985L271.134 401.88C269.443 403.008 267.752 403.571 266.249 403.571C264.37 403.571 262.491 402.632 260.612 400.94C257.982 398.12 255.727 395.113 253.848 392.105C251.969 388.91 250.09 385.339 248.023 381.015C233.367 398.308 214.954 406.955 192.782 406.955C176.999 406.955 164.41 402.444 155.203 393.421C145.996 384.399 141.299 372.369 141.299 357.332C141.299 341.354 146.936 328.385 158.397 318.61C169.859 308.836 185.078 303.949 204.432 303.949C210.82 303.949 217.396 304.513 224.348 305.453C231.3 306.392 238.44 307.896 245.956 309.588V295.866C245.956 281.581 242.95 271.618 237.125 265.792C231.113 259.965 220.966 257.145 206.498 257.145C199.922 257.145 193.158 257.897 186.206 259.589C179.254 261.28 172.489 263.348 165.913 265.979C162.907 267.295 160.652 268.047 159.337 268.423C158.021 268.799 157.082 268.987 156.33 268.987C153.7 268.987 152.385 267.107 152.385 263.16V253.95C152.385 250.942 152.76 248.686 153.7 247.371C154.639 246.055 156.33 244.739 158.961 243.423C165.537 240.04 173.429 237.22 182.636 234.965C191.843 232.521 201.613 231.394 211.947 231.394C234.307 231.394 250.654 236.469 261.176 246.619C271.51 256.769 276.771 272.182 276.771 292.859V353.76H277.147ZM200.862 382.331C207.062 382.331 213.45 381.203 220.215 378.948C226.979 376.692 232.992 372.557 238.065 366.918C241.071 363.347 243.326 359.399 244.453 354.888C245.581 350.377 246.332 344.926 246.332 338.535V330.64C240.883 329.324 235.058 328.197 229.046 327.445C223.033 326.693 217.208 326.317 211.384 326.317C198.795 326.317 189.588 328.761 183.387 333.836C177.187 338.911 174.18 346.054 174.18 355.452C174.18 364.286 176.435 370.865 181.133 375.376C185.642 380.076 192.218 382.331 200.862 382.331ZM351.741 402.632C348.359 402.632 346.104 402.068 344.601 400.752C343.098 399.624 341.783 396.993 340.655 393.421L296.5 248.123C295.373 244.363 294.809 241.92 294.809 240.604C294.809 237.596 296.312 235.905 299.318 235.905H317.732C321.302 235.905 323.745 236.469 325.06 237.784C326.563 238.912 327.691 241.544 328.818 245.115L360.384 369.549L389.696 245.115C390.635 241.356 391.763 238.912 393.266 237.784C394.769 236.657 397.4 235.905 400.782 235.905H415.813C419.383 235.905 421.826 236.469 423.329 237.784C424.832 238.912 426.148 241.544 426.899 245.115L456.587 371.053L489.092 245.115C490.22 241.356 491.535 238.912 492.85 237.784C494.353 236.657 496.796 235.905 500.178 235.905H517.652C520.659 235.905 522.35 237.408 522.35 240.604C522.35 241.544 522.162 242.484 521.974 243.611C521.786 244.739 521.41 246.243 520.659 248.311L475.376 393.609C474.249 397.369 472.933 399.812 471.43 400.94C469.927 402.068 467.484 402.82 464.29 402.82H448.131C444.561 402.82 442.119 402.256 440.615 400.94C439.112 399.624 437.797 397.181 437.045 393.421L407.922 272.182L378.986 393.233C378.046 396.993 376.919 399.436 375.416 400.752C373.913 402.068 371.282 402.632 367.9 402.632H351.741ZM593.186 407.707C583.416 407.707 573.645 406.579 564.25 404.323C554.856 402.068 547.528 399.624 542.642 396.805C539.636 395.113 537.569 393.233 536.818 391.542C536.066 389.85 535.69 387.97 535.69 386.279V376.692C535.69 372.745 537.193 370.865 540.012 370.865C541.139 370.865 542.267 371.053 543.394 371.429C544.521 371.805 546.212 372.557 548.091 373.309C554.48 376.128 561.432 378.384 568.76 379.888C576.276 381.391 583.603 382.143 591.119 382.143C602.957 382.143 612.163 380.076 618.552 375.94C624.94 371.805 628.322 365.79 628.322 358.083C628.322 352.82 626.631 348.497 623.249 344.926C619.867 341.354 613.479 338.159 604.272 335.151L577.027 326.693C563.311 322.37 553.164 315.979 546.964 307.52C540.763 299.25 537.569 290.039 537.569 280.265C537.569 272.37 539.26 265.416 542.642 259.401C546.024 253.386 550.534 248.123 556.171 243.987C561.808 239.664 568.196 236.469 575.712 234.213C583.228 231.957 591.119 231.018 599.387 231.018C603.52 231.018 607.842 231.206 611.976 231.769C616.297 232.333 620.243 233.085 624.189 233.837C627.947 234.777 631.517 235.717 634.899 236.845C638.281 237.972 640.911 239.1 642.79 240.228C645.421 241.732 647.3 243.235 648.427 244.927C649.555 246.431 650.118 248.499 650.118 251.13V259.965C650.118 263.912 648.615 265.979 645.797 265.979C644.293 265.979 641.851 265.228 638.657 263.724C627.947 258.837 615.921 256.393 602.581 256.393C591.871 256.393 583.416 258.085 577.591 261.656C571.766 265.228 568.76 270.679 568.76 278.385C568.76 283.648 570.639 288.16 574.397 291.731C578.154 295.302 585.107 298.874 595.065 302.069L621.746 310.528C635.275 314.851 645.045 320.866 650.87 328.573C656.695 336.279 659.513 345.114 659.513 354.888C659.513 362.971 657.822 370.301 654.628 376.692C651.246 383.083 646.736 388.722 640.911 393.233C635.087 397.932 628.135 401.316 620.055 403.759C611.6 406.391 602.769 407.707 593.186 407.707Z" fill="white"/>
    <path d="M628.698 499.059C566.881 544.735 477.067 568.982 399.842 568.982C291.615 568.982 194.098 528.945 120.443 462.405C114.618 457.142 119.879 449.999 126.831 454.134C206.499 500.374 304.768 528.381 406.419 528.381C475 528.381 550.346 514.096 619.68 484.773C630.014 480.074 638.845 491.54 628.698 499.059Z" fill="#FF9900"/>
    <path d="M654.44 469.736C646.548 459.586 602.205 464.849 582.1 467.292C576.088 468.044 575.148 462.781 580.597 458.834C615.921 434.022 673.981 441.165 680.745 449.435C687.509 457.894 678.866 515.976 645.797 543.795C640.723 548.118 635.838 545.863 638.093 540.224C645.609 521.615 662.331 479.698 654.44 469.736Z" fill="#FF9900"/>
    </g>
    <defs>
    <clipPath id="clip0_514_5">
    <rect width="565" height="338" fill="white" transform="translate(118 231)"/>
    </clipPath>
    </defs>
    </svg>
