<svg width="800" height="800" viewBox="0 0 800 800" fill="none" xmlns="http://www.w3.org/2000/svg">
    <path d="M635.616 10.959H164.384C79.6494 10.959 10.9589 79.6495 10.9589 164.384V635.617C10.9589 720.351 79.6494 789.041 164.384 789.041H635.616C720.351 789.041 789.041 720.351 789.041 635.617V164.384C789.041 79.6495 720.351 10.959 635.616 10.959Z" fill="#000" stroke="#000" stroke-width="21.9178"/>
    <path d="M667.729 402.862C667.729 367.391 623.308 333.775 555.202 312.928C570.919 243.513 563.934 188.286 533.155 170.605C526.061 166.458 517.766 164.493 508.707 164.493V188.832C513.727 188.832 517.766 189.814 521.149 191.67C535.993 200.183 542.432 232.599 537.412 274.291C536.211 284.551 534.246 295.356 531.845 306.38C510.453 301.141 487.096 297.102 462.539 294.483C447.805 274.291 432.525 255.955 417.135 239.911C452.716 206.841 486.114 188.723 508.816 188.723V164.384C478.802 164.384 439.51 185.776 399.782 222.885C360.053 185.994 320.762 164.82 290.747 164.82V189.159C313.34 189.159 346.847 207.168 382.428 240.02C367.148 256.064 351.868 274.291 337.351 294.483C312.685 297.102 289.328 301.141 267.936 306.489C265.426 295.574 263.57 284.987 262.261 274.837C257.131 233.144 263.461 200.729 278.196 192.106C281.47 190.142 285.727 189.269 290.747 189.269V164.93C281.579 164.93 273.284 166.894 266.081 171.042C235.411 188.723 228.535 243.84 244.361 313.037C176.474 333.993 132.271 367.5 132.271 402.862C132.271 438.334 176.692 471.95 244.798 492.797C229.081 562.212 236.066 617.439 266.845 635.12C273.939 639.267 282.234 641.232 291.402 641.232C321.417 641.232 360.708 619.84 400.436 582.731C440.165 619.622 479.456 640.795 509.471 640.795C518.639 640.795 526.934 638.831 534.137 634.683C564.807 617.002 571.683 561.885 555.857 492.688C623.526 471.841 667.729 438.225 667.729 402.862ZM525.624 330.064C521.586 344.143 516.565 358.659 510.89 373.175C506.415 364.444 501.722 355.712 496.592 346.981C491.571 338.249 486.223 329.736 480.875 321.441C496.374 323.733 511.326 326.571 525.624 330.064ZM475.636 446.302C467.123 461.036 458.392 475.006 449.333 487.994C433.07 489.413 416.59 490.177 400 490.177C383.519 490.177 367.039 489.413 350.885 488.104C341.826 475.115 332.986 461.254 324.473 446.629C316.178 432.331 308.647 417.815 301.771 403.19C308.538 388.565 316.178 373.939 324.363 359.642C332.877 344.907 341.608 330.937 350.667 317.949C366.929 316.53 383.41 315.766 400 315.766C416.481 315.766 432.961 316.53 449.114 317.84C458.173 330.828 467.014 344.689 475.527 359.314C483.822 373.612 491.353 388.128 498.229 402.753C491.353 417.379 483.822 432.004 475.636 446.302ZM510.89 432.113C516.783 446.738 521.804 461.363 525.952 475.552C511.654 479.045 496.592 481.992 480.984 484.284C486.332 475.879 491.68 467.257 496.701 458.417C501.722 449.685 506.415 440.844 510.89 432.113ZM400.218 548.569C390.068 538.091 379.917 526.413 369.876 513.643C379.699 514.08 389.74 514.407 399.891 514.407C410.15 514.407 420.301 514.189 430.233 513.643C420.41 526.413 410.259 538.091 400.218 548.569ZM319.015 484.284C303.517 481.992 288.564 479.154 274.267 475.661C278.305 461.582 283.325 447.066 289.001 432.55C293.476 441.281 298.169 450.012 303.299 458.744C308.428 467.475 313.667 475.989 319.015 484.284ZM399.672 257.156C409.823 267.634 419.973 279.312 430.014 292.082C420.191 291.645 410.15 291.318 400 291.318C389.74 291.318 379.59 291.536 369.658 292.082C379.481 279.312 389.631 267.634 399.672 257.156ZM318.906 321.441C313.558 329.845 308.21 338.468 303.19 347.308C298.169 356.04 293.476 364.771 289.001 373.503C283.107 358.878 278.087 344.252 273.939 330.064C288.237 326.68 303.299 323.733 318.906 321.441ZM220.131 458.089C181.494 441.608 156.501 419.998 156.501 402.862C156.501 385.727 181.494 364.007 220.131 347.636C229.518 343.598 239.777 339.996 250.364 336.612C256.585 358.004 264.771 380.27 274.921 403.081C264.88 425.783 256.804 447.939 250.691 469.222C239.886 465.838 229.627 462.127 220.131 458.089ZM278.851 614.055C264.007 605.542 257.568 573.126 262.588 531.434C263.789 521.174 265.753 510.369 268.154 499.345C289.547 504.584 312.903 508.623 337.461 511.242C352.195 531.434 367.475 549.77 382.864 565.814C347.284 598.884 313.886 617.002 291.184 617.002C286.272 616.893 282.125 615.911 278.851 614.055ZM537.739 530.888C542.869 572.581 536.538 604.996 521.804 613.619C518.53 615.583 514.273 616.456 509.253 616.456C486.66 616.456 453.153 598.448 417.572 565.596C432.852 549.551 448.132 531.324 462.648 511.133C487.315 508.513 510.671 504.475 532.064 499.127C534.574 510.151 536.538 520.738 537.739 530.888ZM579.759 458.089C570.373 462.127 560.113 465.729 549.527 469.113C543.305 447.72 535.12 425.455 524.969 402.644C535.01 379.942 543.087 357.786 549.199 336.503C560.004 339.887 570.264 343.598 579.868 347.636C618.505 364.117 643.499 385.727 643.499 402.862C643.39 419.998 618.396 441.718 579.759 458.089Z" fill="#61DAFB"/>
    <path d="M399.891 452.741C427.438 452.741 449.769 430.41 449.769 402.862C449.769 375.315 427.438 352.984 399.891 352.984C372.344 352.984 350.012 375.315 350.012 402.862C350.012 430.41 372.344 452.741 399.891 452.741Z" fill="#61DAFB"/>
    </svg>
