<svg width="801" height="801" viewBox="0 0 801 801" fill="none" xmlns="http://www.w3.org/2000/svg">
    <path d="M635.658 11H164.425C79.6906 11 11 79.6906 11 164.425V635.658C11 720.392 79.6906 789.082 164.425 789.082H635.658C720.392 789.082 789.082 720.392 789.082 635.658V164.425C789.082 79.6906 720.392 11 635.658 11Z" fill="black" stroke="black" stroke-width="21.9178"/>
    <path d="M509.646 208.729H428.479V178.292C428.479 172.91 430.617 167.749 434.422 163.943C438.228 160.138 443.389 158 448.771 158H489.354C494.736 158 499.897 160.138 503.703 163.943C507.508 167.749 509.646 172.91 509.646 178.292V208.729Z" fill="#D0D7DF"/>
    <path d="M509.646 239.167H428.479V563.833H509.646V239.167Z" fill="#FED049"/>
    <path d="M509.646 208.729H428.479V239.167H509.646V208.729Z" fill="#49AAEE"/>
    <path d="M469.063 645L428.479 563.833H509.646L469.063 645Z" fill="#FDE0BA"/>
    <path d="M486.554 610.007C481.446 606.372 475.332 604.418 469.062 604.418C462.793 604.418 456.679 606.372 451.571 610.007L469.062 645L486.554 610.007Z" fill="#4C6681"/>
    <path d="M509.646 239.167H489.354V563.833H509.646V239.167Z" fill="#F6B445"/>
    <path d="M509.646 208.729H489.354V239.167H509.646V208.729Z" fill="#3398D6"/>
    <path d="M276.292 158C270.915 158.016 265.763 160.159 261.961 163.961C258.159 167.763 256.016 172.915 256 178.292V624.708C256.016 630.085 258.159 635.237 261.961 639.039C265.763 642.841 270.915 644.984 276.292 645H387.896V158H276.292Z" fill="#FED049"/>
    <path d="M387.896 391.354H306.729V411.646H387.896V391.354Z" fill="#F6B445"/>
    <path d="M387.896 310.188H337.167V330.479H387.896V310.188Z" fill="#F6B445"/>
    <path d="M387.896 229.021H306.729V249.312H387.896V229.021Z" fill="#F6B445"/>
    <path d="M387.896 472.521H337.167V492.812H387.896V472.521Z" fill="#F6B445"/>
    <path d="M387.896 553.688H306.729V573.979H387.896V553.688Z" fill="#F6B445"/>
    </svg>
