<svg width="801" height="801" viewBox="0 0 801 801" fill="none" xmlns="http://www.w3.org/2000/svg">
    <path d="M635.658 11H164.425C79.6906 11 11 79.6906 11 164.425V635.658C11 720.392 79.6906 789.082 164.425 789.082H635.658C720.392 789.082 789.082 720.392 789.082 635.658V164.425C789.082 79.6906 720.392 11 635.658 11Z" fill="black" stroke="black" stroke-width="21.9178"/>
    <rect x="219.5" y="185" width="357" height="401" fill="white"/>
    <path d="M48 154.333C48 94.5023 96.5023 46 156.333 46H539.667C599.497 46 648 94.5023 648 154.333V537.667C648 597.497 599.497 646 539.667 646H156.333C96.5023 646 48 597.497 48 537.667V154.333ZM348 262.667C334.193 262.667 323 273.86 323 287.667V487.667C323 492.27 319.27 496 314.667 496H273C259.193 496 248 507.193 248 521C248 534.807 259.193 546 273 546H314.667C346.883 546 373 519.883 373 487.667V287.667C373 273.86 361.807 262.667 348 262.667ZM414.667 321V371C414.667 403.217 440.783 429.333 473 429.333H489.667C494.27 429.333 498 433.063 498 437.667V487.667C498 492.27 494.27 496 489.667 496H439.667C425.86 496 414.667 507.193 414.667 521C414.667 534.807 425.86 546 439.667 546H489.667C521.883 546 548 519.883 548 487.667V437.667C548 405.45 521.883 379.333 489.667 379.333H473C468.397 379.333 464.667 375.603 464.667 371V321C464.667 316.397 468.397 312.667 473 312.667H523C536.807 312.667 548 301.473 548 287.667C548 273.86 536.807 262.667 523 262.667H473C440.783 262.667 414.667 288.783 414.667 321Z" fill="black"/>
    </svg>
