<svg width="800" height="800" viewBox="0 0 800 800" fill="none" xmlns="http://www.w3.org/2000/svg">
    <g clip-path="url(#clip0_527_8)">
    <path d="M424 108C424 94.1128 420.856 80.406 414.803 67.9072C408.751 55.4084 399.948 44.4419 389.054 35.8298C378.16 27.2177 365.458 21.1836 351.9 18.1799C338.341 15.1761 324.279 15.2807 310.767 18.4857C297.255 21.6908 284.644 27.9131 273.879 36.6863C263.114 45.4594 254.475 56.5556 248.609 69.1431C242.744 81.7305 239.804 95.4825 240.01 109.368C240.216 123.253 243.563 136.912 249.8 149.32C238.792 143.191 226.399 139.983 213.8 140C169.8 140 133.8 179.4 133.8 228C133.618 250.828 141.897 272.916 157.04 290C151.453 288.696 145.737 288.025 140 288C89.2 288 48 338.16 48 400C48 461.84 89.2 512 140 512C145.804 511.989 151.588 511.318 157.24 510C142.097 527.084 133.818 549.171 134 572C134 620.6 170 660 214 660C226.599 660.017 238.992 656.808 250 650.68C243.688 663.089 240.274 676.769 240.017 690.689C239.759 704.608 242.664 718.405 248.512 731.039C254.361 743.674 263.001 754.816 273.78 763.626C284.56 772.437 297.199 778.685 310.745 781.902C324.29 785.119 338.389 785.219 351.979 782.196C365.569 779.173 378.296 773.105 389.2 764.449C400.104 755.793 408.902 744.775 414.93 732.225C420.958 719.676 424.059 705.922 424 692C424 690.64 424 689.32 424 688V112C424 110.68 424 109.36 424 108Z" fill="white" stroke="#220728" stroke-width="32" stroke-linejoin="bevel"/>
    <path d="M269.04 757.04C286.295 774.295 309.698 783.989 334.1 783.989C358.502 783.989 381.905 774.295 399.16 757.04C416.415 739.785 426.109 716.382 426.109 691.98C426.109 667.578 416.415 644.175 399.16 626.92H347.6" stroke="#220728" stroke-width="32" stroke-miterlimit="10"/>
    <path d="M265.04 42.9597C282.353 26.0126 305.653 16.5788 329.879 16.7064C354.106 16.834 377.305 26.5127 394.439 43.6413C411.573 60.7698 421.258 83.9655 421.393 108.192C421.528 132.419 412.102 155.721 395.16 173.04H350.68" stroke="#220728" stroke-width="32" stroke-miterlimit="10"/>
    <path d="M424 380H324L197 499.04" stroke="#220728" stroke-width="32" stroke-miterlimit="10"/>
    <path d="M179.88 346.6L249.8 445.76" stroke="#220728" stroke-width="32" stroke-miterlimit="10"/>
    <path d="M249.8 650.68L298 584" stroke="#220728" stroke-width="32" stroke-miterlimit="10"/>
    <path d="M249.8 149.96L284 204V284" stroke="#220728" stroke-width="32" stroke-miterlimit="10"/>
    <path d="M608 400H416" stroke="#220728" stroke-width="32" stroke-miterlimit="10"/>
    <path d="M428 524H524L572 610.68" stroke="#220728" stroke-width="32" stroke-miterlimit="10"/>
    <path d="M428 280H524L572 193.32" stroke="#220728" stroke-width="32" stroke-miterlimit="10"/>
    <path d="M684 464C719.346 464 748 435.346 748 400C748 364.654 719.346 336 684 336C648.654 336 620 364.654 620 400C620 435.346 648.654 464 684 464Z" fill="white" stroke="black" stroke-width="32" stroke-miterlimit="10"/>
    <path d="M596 744C631.346 744 660 715.346 660 680C660 644.654 631.346 616 596 616C560.654 616 532 644.654 532 680C532 715.346 560.654 744 596 744Z" fill="white" stroke="black" stroke-width="32" stroke-miterlimit="10"/>
    <path d="M596 184C631.346 184 660 155.346 660 120C660 84.6538 631.346 56 596 56C560.654 56 532 84.6538 532 120C532 155.346 560.654 184 596 184Z" fill="white" stroke="black" stroke-width="32" stroke-miterlimit="10"/>
    </g>
    <defs>
    <clipPath id="clip0_527_8">
    <rect width="800" height="800" fill="white"/>
    </clipPath>
    </defs>
    </svg>
