<svg width="801" height="801" viewBox="0 0 801 801" fill="none" xmlns="http://www.w3.org/2000/svg">
	<path d="M635.658 11H164.425C79.6906 11 11 79.6906 11 164.425V635.658C11 720.392 79.6906 789.082 164.425 789.082H635.658C720.392 789.082 789.082 720.392 789.082 635.658V164.425C789.082 79.6906 720.392 11 635.658 11Z" fill="black" stroke="black" stroke-width="21.9178"/>
	<path d="M400.5 571.977C583.582 571.977 732 494.751 732 399.488C732 304.226 583.582 227 400.5 227C217.418 227 69 304.226 69 399.488C69 494.751 217.418 571.977 400.5 571.977Z" fill="#8993BE"/>
	<path fill-rule="evenodd" clip-rule="evenodd" d="M162.092 501.62L198.422 317.782H282.429C318.757 320.053 336.922 338.208 336.922 369.985C336.922 424.454 293.783 456.229 255.181 453.958H214.316L205.233 501.62H162.092ZM223.396 419.916L234.75 351.827H264.266C280.16 351.827 291.511 358.635 291.511 372.252C289.243 410.838 271.078 417.646 250.644 419.916H223.396ZM328.482 453.958L364.809 270.124H407.951L398.868 317.782H439.736C476.066 320.053 489.689 338.208 485.149 360.906L469.255 453.958H423.845L439.739 369.985C442.007 358.635 442.007 351.827 426.116 351.827H392.057L371.623 453.958H328.482ZM466.347 501.62L502.674 317.782H586.684C623.014 320.053 641.179 338.208 641.179 369.985C641.179 424.454 598.038 456.229 559.439 453.958H518.568L509.486 501.62H466.347ZM527.648 419.916L539.002 351.827H568.521C584.415 351.827 595.766 358.635 595.766 372.252C593.498 410.838 575.332 417.646 554.899 419.916H527.651H527.648Z" fill="#232531"/>
	</svg>
