<svg width="801" height="801" viewBox="0 0 801 801" fill="none" xmlns="http://www.w3.org/2000/svg">
    <path d="M635.658 11H164.425C79.6906 11 11 79.6906 11 164.425V635.658C11 720.392 79.6906 789.082 164.425 789.082H635.658C720.392 789.082 789.082 720.392 789.082 635.658V164.425C789.082 79.6906 720.392 11 635.658 11Z" fill="black" stroke="black" stroke-width="21.9178"/>
    <path d="M324.709 556.954C324.709 556.954 302.853 569.664 340.263 573.965C385.586 579.135 408.749 578.395 458.695 568.94C458.695 568.94 471.827 577.174 490.164 584.307C378.201 632.295 236.766 581.526 324.709 556.954ZM311.027 494.331C311.027 494.331 286.513 512.478 323.952 516.35C372.366 521.345 410.6 521.754 476.76 509.014C476.76 509.014 485.911 518.291 500.3 523.365C364.928 562.952 214.148 526.487 311.027 494.331Z" fill="#5382A1"/>
    <path d="M426.367 388.104C453.956 419.868 419.119 448.451 419.119 448.451C419.119 448.451 489.169 412.288 456.998 367.001C426.951 324.771 403.908 303.786 528.649 231.438C528.649 231.438 332.848 280.344 426.367 388.104Z" fill="#E76F00"/>
    <path d="M574.448 603.273C574.448 603.273 590.622 616.599 556.635 626.91C492.008 646.489 287.649 652.401 230.878 627.69C210.471 618.813 248.741 606.492 260.779 603.905C273.333 601.183 280.508 601.691 280.508 601.691C257.813 585.702 133.816 633.085 217.524 646.653C445.808 683.676 633.662 629.983 574.448 603.273ZM335.217 429.448C335.217 429.448 231.269 454.14 298.408 463.104C326.755 466.9 383.266 466.042 435.905 461.631C478.924 458.004 522.121 450.287 522.121 450.287C522.121 450.287 506.952 456.783 495.978 464.277C390.418 492.041 186.496 479.125 245.203 450.725C294.851 426.726 335.217 429.448 335.217 429.448ZM521.692 533.684C629 477.921 579.385 424.334 544.755 431.555C536.266 433.32 532.482 434.85 532.482 434.85C532.482 434.85 535.634 429.915 541.652 427.779C610.16 403.691 662.849 498.819 519.536 536.495C519.536 536.497 521.197 535.013 521.692 533.684Z" fill="#5382A1"/>
    <path d="M456.998 114.614C456.998 114.614 516.427 174.067 400.633 265.484C307.78 338.818 379.46 380.631 400.595 428.403C346.394 379.499 306.617 336.448 333.304 296.381C372.47 237.563 480.975 209.048 456.998 114.614Z" fill="#E76F00"/>
    <path d="M345.763 684.789C448.764 691.384 606.932 681.131 610.678 632.391C610.678 632.391 603.478 650.87 525.554 665.542C437.64 682.086 329.213 680.155 264.902 669.552C264.904 669.552 278.066 680.449 345.763 684.789Z" fill="#5382A1"/>
    </svg>
