<svg width="801" height="801" viewBox="0 0 801 801" fill="none" xmlns="http://www.w3.org/2000/svg">
    <path d="M635.658 11H164.425C79.6906 11 11 79.6906 11 164.425V635.658C11 720.392 79.6906 789.082 164.425 789.082H635.658C720.392 789.082 789.082 720.392 789.082 635.658V164.425C789.082 79.6906 720.392 11 635.658 11Z" fill="black" stroke="black" stroke-width="21.9178"/>
    <g clip-path="url(#clip0_522_4)">
    <path fill-rule="evenodd" clip-rule="evenodd" d="M501.831 330.054H608.951V352.379H566.454V469.837H545.205V352.379H501.831V330.054ZM698.15 426.109C697.922 423.641 696.913 421.701 695.159 420.318C693.382 418.921 691.1 418.229 688.289 418.229C686.319 418.229 684.625 418.568 683.208 419.233C681.802 419.897 680.709 420.792 679.953 421.932C679.208 423.071 678.836 424.373 678.8 425.824C678.8 427.045 679.064 428.103 679.568 428.985C680.073 429.88 680.745 430.639 681.622 431.25C682.487 431.874 683.448 432.376 684.505 432.796C685.574 433.216 686.631 433.569 687.7 433.854L692.613 435.21C694.583 435.726 696.493 436.417 698.331 437.299C700.156 438.167 701.814 439.266 703.267 440.595C704.721 441.924 705.874 443.525 706.715 445.396C707.568 447.282 708 449.479 708 452.002C708 455.419 707.219 458.417 705.658 461.008C704.084 463.585 701.826 465.605 698.859 467.057C695.904 468.508 692.337 469.24 688.133 469.24C684.073 469.24 680.529 468.535 677.55 467.125C674.559 465.728 672.217 463.68 670.535 460.994C668.854 458.295 667.953 455.013 667.821 451.147H677.142C677.274 453.168 677.851 454.85 678.836 456.22C679.821 457.562 681.118 458.553 682.703 459.231C684.301 459.882 686.091 460.221 688.061 460.221C690.115 460.221 691.928 459.868 693.502 459.177C695.051 458.485 696.277 457.535 697.153 456.274C698.054 455.053 698.499 453.588 698.511 451.92C698.499 450.401 698.09 449.14 697.322 448.136C696.529 447.146 695.436 446.319 694.03 445.64C692.625 444.976 690.979 444.365 689.106 443.836L683.148 442.141C678.848 440.907 675.436 439.022 672.938 436.512C670.439 433.99 669.202 430.667 669.202 426.489C669.202 423.058 670.031 420.046 671.725 417.469C673.394 414.892 675.676 412.885 678.571 411.461C681.478 410.023 684.757 409.318 688.421 409.318C692.133 409.318 695.388 410.023 698.198 411.461C700.997 412.885 703.207 414.865 704.805 417.402C706.402 419.938 707.231 422.827 707.279 426.109H698.15ZM649.995 410.105H659.413V451.052C659.401 454.823 658.68 458.037 657.263 460.75C655.845 463.463 653.863 465.524 651.341 466.975C648.818 468.427 645.863 469.159 642.512 469.159C639.449 469.159 636.698 468.535 634.248 467.314C631.798 466.094 629.852 464.276 628.434 461.876C626.993 459.461 626.284 456.477 626.284 452.883H635.713C635.725 454.456 636.05 455.813 636.65 456.952C637.251 458.091 638.092 458.959 639.149 459.57C640.23 460.18 641.479 460.479 642.872 460.479C644.386 460.479 645.671 460.126 646.728 459.407C647.773 458.702 648.59 457.644 649.143 456.233C649.695 454.836 649.983 453.114 649.995 451.052V410.105ZM613.732 468.983C612.17 468.983 610.849 468.372 609.744 467.152C608.639 465.945 608.087 464.466 608.099 462.717C608.087 461.021 608.639 459.57 609.744 458.349C610.849 457.128 612.17 456.518 613.732 456.518C615.233 456.518 616.543 457.128 617.648 458.349C618.765 459.57 619.329 461.021 619.342 462.717C619.329 463.869 619.077 464.927 618.549 465.877C618.02 466.84 617.348 467.586 616.495 468.142C615.654 468.698 614.741 468.983 613.732 468.983ZM218.546 468.793L119.558 330H93V469.783H114.249V359.88L192.589 469.837H325.655V447.512H239.783V410.62H308.839V388.295H239.783V352.379H325.655V330.054H218.534V352.379H218.546V468.793ZM407.683 429.961L393.749 410.403L351.264 470H379.143L407.683 429.961ZM379.143 330.122H351.336L450.937 469.891H478.816L429.016 400.054L478.744 330.217L450.937 330.271L415.094 380.537L379.143 330.122Z" fill="white"/>
    </g>
    <defs>
    <clipPath id="clip0_522_4">
    <rect width="615" height="140" fill="white" transform="translate(93 330)"/>
    </clipPath>
    </defs>
    </svg>
