<svg width="801" height="801" viewBox="0 0 801 801" fill="none" xmlns="http://www.w3.org/2000/svg">
    <path d="M635.658 11H164.425C79.6906 11 11 79.6906 11 164.425V635.658C11 720.392 79.6906 789.082 164.425 789.082H635.658C720.392 789.082 789.082 720.392 789.082 635.658V164.425C789.082 79.6906 720.392 11 635.658 11Z" fill="black" stroke="black" stroke-width="21.9178"/>
    <path d="M595.953 524.734C570.618 524.102 550.982 526.638 534.514 533.608C529.763 535.508 522.161 535.51 521.528 541.531C524.062 544.067 524.378 548.187 526.596 551.671C530.4 558.007 537.046 566.564 543.064 571.003C549.714 576.072 556.367 581.141 563.331 585.578C575.684 593.184 589.62 597.619 601.654 605.225C608.624 609.658 615.587 615.366 622.555 620.118C626.039 622.65 628.255 626.774 632.691 628.356V627.408C630.472 624.553 629.838 620.435 627.623 617.266C624.459 614.097 621.288 611.245 618.121 608.075C608.937 595.719 597.537 584.944 585.186 576.072C575.052 569.1 552.881 559.594 548.765 547.868C548.765 547.868 548.447 547.553 548.132 547.236C555.098 546.602 563.331 544.067 569.985 542.165C580.752 539.311 590.569 539.947 601.654 537.094C606.72 535.827 611.788 534.242 616.854 532.657V529.807C611.156 524.102 607.039 516.498 601.021 511.11C584.869 497.164 567.132 483.54 548.765 472.133C538.946 465.794 526.277 461.674 515.827 456.289C512.029 454.385 505.693 453.436 503.478 450.267C497.775 443.297 494.607 434.108 490.491 425.868C481.31 408.437 472.439 389.109 464.521 370.731C458.824 358.371 455.339 346.011 448.371 334.606C415.751 280.735 380.281 248.096 325.81 216.088C314.09 209.435 300.156 206.583 285.271 203.098C277.357 202.78 269.436 202.148 261.52 201.829C256.452 199.61 251.384 193.591 246.95 190.738C228.902 179.329 182.343 154.615 169.042 187.254C160.491 207.85 181.712 228.13 188.993 238.59C194.381 245.877 201.346 254.115 205.147 262.355C207.364 267.739 207.995 273.447 210.212 279.15C215.282 293.089 220.029 308.62 226.683 321.614C230.167 328.267 233.966 335.238 238.4 341.259C240.934 344.744 245.366 346.33 246.318 352.033C241.886 358.371 241.567 367.879 239.032 375.8C227.631 411.608 232.067 455.972 248.217 482.273C253.283 490.192 265.319 507.626 281.47 500.969C295.723 495.266 292.556 477.204 296.67 461.359C297.624 457.553 296.99 455.021 298.889 452.486V453.121C303.323 461.991 307.756 470.55 311.873 479.422C321.692 494.948 338.792 511.11 353.043 521.886C360.647 527.587 366.663 537.411 376.165 540.897V539.945H375.53C373.629 537.092 370.779 535.827 368.247 533.606C362.547 527.905 356.211 520.933 351.778 514.595C338.479 496.847 326.758 477.202 316.308 456.921C311.242 447.1 306.806 436.325 302.69 426.502C300.788 422.695 300.788 416.994 297.622 415.094C292.871 422.065 285.905 428.086 282.421 436.641C276.406 450.267 275.771 467.062 273.554 484.489C272.287 484.81 272.919 484.489 272.285 485.127C262.153 482.588 258.669 472.133 254.867 463.259C245.365 440.761 243.781 404.636 252.018 378.652C254.235 371.997 263.737 351.084 259.936 344.745C258.036 338.724 251.699 335.238 248.217 330.486C244.101 324.464 239.665 316.862 236.816 310.205C229.215 292.459 225.414 272.812 217.181 255.066C213.38 246.826 206.732 238.273 201.346 230.667C195.33 222.112 188.678 216.088 183.927 205.949C182.345 202.464 180.126 196.76 182.66 192.957C183.294 190.421 184.559 189.473 187.095 188.839C191.212 185.351 202.931 189.788 207.045 191.689C218.764 196.439 228.581 200.88 238.4 207.533C242.832 210.703 247.584 216.724 253.283 218.309H259.934C270.07 220.525 281.469 218.943 290.971 221.793C307.758 227.179 322.957 235.102 336.577 243.659C378.065 269.959 412.265 307.352 435.387 352.033C439.188 359.318 440.77 365.977 444.254 373.58C450.907 389.109 459.14 404.953 465.788 420.163C472.439 435.055 478.772 450.267 488.274 462.627C493.025 469.279 512.026 472.767 520.578 476.253C526.912 479.103 536.731 481.64 542.43 485.125C553.198 491.776 563.965 499.386 574.1 506.672C579.168 510.475 595.001 518.398 595.953 524.734Z" fill="white"/>
    <path d="M272.917 249.36C267.534 249.36 263.735 249.997 259.934 250.946V251.58H260.568C263.103 256.651 267.534 260.137 270.699 264.572C273.235 269.641 275.45 274.713 277.986 279.784C278.301 279.465 278.618 279.15 278.618 279.15C283.054 275.979 285.269 270.91 285.269 263.304C283.369 261.088 283.052 258.869 281.468 256.651C279.57 253.48 275.45 251.897 272.917 249.36Z" fill="white"/>
    </svg>
