<svg width="800" height="800" viewBox="0 0 800 800" fill="none" xmlns="http://www.w3.org/2000/svg">
    <path d="M635.617 10.959H164.384C79.6495 10.959 10.959 79.6495 10.959 164.384V635.617C10.959 720.351 79.6495 789.041 164.384 789.041H635.617C720.351 789.041 789.041 720.351 789.041 635.617V164.384C789.041 79.6495 720.351 10.959 635.617 10.959Z" fill="black" stroke="black" stroke-width="21.9178"/>
    <path d="M146 538H189.131V580.599H228.588V538H271.722V667H228.59V623.803H189.134V667H146.003L146 538ZM328.439 580.78H290.473V538H409.567V580.78H371.578V667H328.447V580.78H328.439ZM428.467 538H473.441L501.105 583.327L528.744 538H573.735V667H530.779V603.061L501.105 648.927H500.361L470.669 603.061V667H428.467V538ZM595.2 538H638.345V624.361H699V667H595.197V538H595.2Z" fill="white"/>
    <path d="M558.136 130L529.244 453.662L399.374 489.666L269.862 453.712L241 130H558.136Z" fill="#E44D26"/>
    <path d="M399.568 462.146L504.51 433.053L529.198 156.468H399.568V462.146Z" fill="#F16529"/>
    <path d="M343.403 235.873H399.568V196.171H300.014L300.964 206.822L310.723 316.23H399.568V276.528H347.032L343.403 235.873ZM352.351 336.082H312.496L318.058 398.42L399.385 420.995L399.568 420.946V379.639L399.394 379.685L355.178 367.746L352.351 336.082Z" fill="#EBEBEB"/>
    <path d="M399.431 316.23H448.32L443.71 367.721L399.43 379.672V420.977L480.822 398.42L481.418 391.712L490.749 287.189L491.718 276.528H399.431V316.23ZM399.431 235.776V235.873H495.33L496.126 226.95L497.936 206.822L498.884 196.171H399.431V235.776Z" fill="white"/>
    </svg>
