<svg width="801" height="801" viewBox="0 0 801 801" fill="none" xmlns="http://www.w3.org/2000/svg">
    <path d="M635.658 11H164.425C79.6906 11 11 79.6906 11 164.425V635.658C11 720.392 79.6906 789.082 164.425 789.082H635.658C720.392 789.082 789.082 720.392 789.082 635.658V164.425C789.082 79.6906 720.392 11 635.658 11Z" fill="black" stroke="black" stroke-width="21.9178"/>
    <path d="M702.004 400.561C702.004 360.615 651.979 322.759 575.282 299.282C592.981 221.111 585.115 158.918 550.454 139.006C542.464 134.335 533.123 132.123 522.922 132.123V159.532C528.575 159.532 533.123 160.638 536.933 162.728C553.649 172.315 560.901 208.82 555.247 255.772C553.895 267.325 551.683 279.494 548.979 291.908C524.888 286.008 498.585 281.46 470.93 278.51C454.337 255.772 437.129 235.123 419.799 217.055C459.868 179.813 497.479 159.409 523.044 159.409V132C489.244 132 444.996 156.091 400.256 197.881C355.516 156.336 311.268 132.492 277.467 132.492V159.901C302.91 159.901 340.644 180.181 380.713 217.178C363.505 235.246 346.298 255.772 329.951 278.51C302.173 281.46 275.87 286.008 251.779 292.031C248.952 279.74 246.862 267.817 245.388 256.386C239.611 209.434 246.74 172.93 263.333 163.22C267.02 161.007 271.813 160.024 277.467 160.024V132.615C267.143 132.615 257.802 134.827 249.689 139.498C215.151 159.409 207.408 221.48 225.23 299.405C148.779 323.004 99 360.738 99 400.561C99 440.508 149.025 478.364 225.722 501.84C208.022 580.012 215.889 642.205 250.55 662.117C258.539 666.788 267.88 669 278.205 669C312.006 669 356.254 644.909 400.993 603.119C445.733 644.664 489.981 668.508 523.782 668.508C534.106 668.508 543.448 666.296 551.56 661.625C586.098 641.714 593.841 579.643 576.019 501.718C652.224 478.241 702.004 440.385 702.004 400.561ZM541.973 318.58C537.425 334.435 531.771 350.782 525.38 367.13C520.34 357.297 515.055 347.464 509.278 337.631C503.624 327.798 497.602 318.211 491.579 308.87C509.033 311.451 525.871 314.646 541.973 318.58ZM485.679 449.48C476.092 466.073 466.259 481.806 456.058 496.432C437.744 498.03 419.184 498.891 400.502 498.891C381.942 498.891 363.382 498.03 345.192 496.555C334.99 481.929 325.034 466.319 315.447 449.849C306.106 433.748 297.625 417.4 289.881 400.93C297.502 384.46 306.106 367.99 315.324 351.889C324.911 335.295 334.744 319.563 344.946 304.936C363.26 303.339 381.819 302.478 400.502 302.478C419.061 302.478 437.621 303.339 455.812 304.813C466.014 319.44 475.969 335.05 485.556 351.52C494.898 367.621 503.379 383.968 511.122 400.439C503.379 416.909 494.898 433.379 485.679 449.48ZM525.38 433.502C532.017 449.972 537.671 466.442 542.342 482.42C526.24 486.354 509.278 489.672 491.702 492.253C497.725 482.789 503.747 473.079 509.401 463.123C515.055 453.29 520.34 443.335 525.38 433.502ZM400.748 564.648C389.317 552.849 377.886 539.697 366.578 525.317C377.64 525.808 388.948 526.177 400.379 526.177C411.932 526.177 423.363 525.931 434.548 525.317C423.486 539.697 412.055 552.849 400.748 564.648ZM309.301 492.253C291.848 489.672 275.009 486.477 258.908 482.543C263.455 466.688 269.109 450.341 275.501 433.993C280.54 443.826 285.825 453.659 291.602 463.492C297.379 473.325 303.279 482.912 309.301 492.253ZM400.133 236.475C411.564 248.274 422.995 261.426 434.302 275.806C423.24 275.315 411.932 274.946 400.502 274.946C388.948 274.946 377.517 275.192 366.332 275.806C377.394 261.426 388.825 248.274 400.133 236.475ZM309.179 308.87C303.156 318.334 297.133 328.044 291.479 338C285.825 347.832 280.54 357.665 275.501 367.498C268.864 351.028 263.21 334.558 258.539 318.58C274.64 314.769 291.602 311.451 309.179 308.87ZM197.944 462.755C154.433 444.195 126.286 419.859 126.286 400.561C126.286 381.264 154.433 356.805 197.944 338.368C208.514 333.821 220.068 329.764 231.99 325.954C238.996 350.045 248.214 375.119 259.645 400.807C248.337 426.373 239.242 451.324 232.359 475.292C220.191 471.481 208.637 467.302 197.944 462.755ZM264.07 638.395C247.354 628.808 240.102 592.303 245.756 545.351C247.108 533.797 249.321 521.629 252.025 509.215C276.115 515.115 302.418 519.663 330.073 522.613C346.667 545.351 363.874 566 381.205 584.068C341.136 621.31 303.525 641.714 277.959 641.714C272.428 641.591 267.757 640.485 264.07 638.395ZM555.616 544.737C561.393 591.689 554.264 628.193 537.671 637.903C533.984 640.116 529.19 641.099 523.536 641.099C498.093 641.099 460.36 620.819 420.29 583.822C437.498 565.754 454.706 545.228 471.053 522.49C498.831 519.54 525.134 514.992 549.225 508.969C552.052 521.383 554.264 533.306 555.616 544.737ZM602.937 462.755C592.366 467.302 580.813 471.358 568.89 475.169C561.884 451.078 552.666 426.004 541.235 400.316C552.543 374.75 561.639 349.799 568.522 325.831C580.69 329.642 592.244 333.821 603.06 338.368C646.57 356.928 674.717 381.264 674.717 400.561C674.594 419.859 646.448 444.318 602.937 462.755Z" fill="#61DAFB"/>
    <path d="M400.379 456.732C431.401 456.732 456.549 431.584 456.549 400.562C456.549 369.54 431.401 344.391 400.379 344.391C369.356 344.391 344.208 369.54 344.208 400.562C344.208 431.584 369.356 456.732 400.379 456.732Z" fill="#61DAFB"/>
    </svg>
