<svg width="800" height="800" viewBox="0 0 800 800" fill="none" xmlns="http://www.w3.org/2000/svg">
	<path d="M155 418L382.5 645L752 273.5C766.167 210.5 786 76.0002 752 42.0002C718 8.00016 585.167 38.5002 523 58.0002L155 418Z" fill="white" stroke="black"/>
	<path d="M123 527.5L178 446.5L355.5 616.5L267.5 677L123 527.5Z" fill="white" stroke="black"/>
	<path d="M85 315.5L212.5 364L376 193.5L195.5 205.5L85 315.5Z" fill="#fff"/>
	<path d="M486 709.5L446.5 587.5L606.5 419L594.5 610L486 709.5Z" fill="#fff"/>
	<path d="M85 315.5L212.5 364L376 193.5L195.5 205.5L85 315.5Z" stroke="black"/>
	<path d="M486 709.5L446.5 587.5L606.5 419L594.5 610L486 709.5Z" stroke="black"/>
	<path d="M780.673 33.862L776.686 23.3104L766.134 19.3254C732.178 6.50174 696.486 0 660.051 0C579.979 0 504.698 31.182 448.077 87.8034L367.801 168.08L188.384 176.782L38.2178 326.946L167.692 368.189L119.814 416.065L147.782 444.032L85.8206 539.005L260.99 714.177L355.964 652.216L383.932 680.184L431.809 632.306L473.049 761.78L623.218 611.614L631.918 432.199L712.195 351.923C795.354 268.762 822.233 143.915 780.673 33.862ZM131.526 304.26L210.063 225.725L315.257 220.623L207.439 328.441L131.526 304.26ZM267.646 650.212L149.786 532.352L183.864 480.117L319.88 616.134L267.646 650.212ZM574.273 589.937L495.738 668.472L471.557 592.559L579.375 484.741L574.273 589.937ZM383.932 609.562L190.434 416.065L483.387 123.112C530.577 75.9235 593.316 49.9365 660.051 49.9365C686.612 49.9365 712.692 54.0763 737.737 62.2559C766.785 151.276 743.501 249.992 676.884 316.611L383.932 609.562Z" fill="black"/>
	<path d="M607.458 117.634C587.45 117.634 568.641 125.426 554.494 139.573C525.287 168.777 525.287 216.298 554.494 245.505C568.641 259.652 587.452 267.443 607.458 267.443C627.464 267.443 646.275 259.652 660.422 245.505C689.628 216.3 689.628 168.779 660.422 139.573C646.277 125.426 627.466 117.634 607.458 117.634ZM625.114 210.194C620.398 214.91 614.128 217.509 607.46 217.509C600.791 217.509 594.521 214.91 589.805 210.196C580.069 200.46 580.069 184.62 589.805 174.884C594.521 170.169 600.791 167.572 607.46 167.572C614.128 167.572 620.398 170.169 625.114 174.884C634.848 184.619 634.848 200.46 625.114 210.194Z" fill="black"/>
	<path d="M0 625.226L56.5931 568.631L91.9032 603.941L35.3101 660.534L0 625.226ZM174.763 800L139.453 764.69L196.046 708.097L231.356 743.407L174.763 800ZM41.6437 720.548L125.074 637.117L160.385 672.427L76.9539 755.858L41.6437 720.548Z" fill="black"/>
	</svg>
